<mxfile host="app.diagrams.net" modified="2024-01-03T06:35:50.741Z" agent="Mozilla/5.0 (Windows NT 10.0; Win64; x64) AppleWebKit/537.36 (KHTML, like Gecko) Chrome/120.0.0.0 Safari/537.36" etag="l2Y9XPUTgreW3DvcncFI" version="22.1.16" type="github">
  <diagram id="R2lEEEUBdFMjLlhIrx00" name="Page-1">
    <mxGraphModel dx="840" dy="494" grid="1" gridSize="10" guides="1" tooltips="1" connect="1" arrows="1" fold="1" page="1" pageScale="1" pageWidth="850" pageHeight="1100" math="0" shadow="0" extFonts="Permanent Marker^https://fonts.googleapis.com/css?family=Permanent+Marker">
      <root>
        <mxCell id="0" />
        <mxCell id="1" parent="0" />
        <mxCell id="SwKZbsGES2z7DBq1MBqL-1" value="Customer" style="whiteSpace=wrap;html=1;align=center;" vertex="1" parent="1">
          <mxGeometry x="120" y="360" width="100" height="40" as="geometry" />
        </mxCell>
        <mxCell id="SwKZbsGES2z7DBq1MBqL-2" value="Foodie_Info" style="whiteSpace=wrap;html=1;align=center;" vertex="1" parent="1">
          <mxGeometry x="390" y="120" width="100" height="40" as="geometry" />
        </mxCell>
        <mxCell id="SwKZbsGES2z7DBq1MBqL-3" value="Delievery_Person&lt;br&gt;" style="whiteSpace=wrap;html=1;align=center;" vertex="1" parent="1">
          <mxGeometry x="280" y="600" width="100" height="40" as="geometry" />
        </mxCell>
        <mxCell id="SwKZbsGES2z7DBq1MBqL-4" value="Transaction_History" style="whiteSpace=wrap;html=1;align=center;" vertex="1" parent="1">
          <mxGeometry x="80" y="680" width="140" height="40" as="geometry" />
        </mxCell>
        <mxCell id="SwKZbsGES2z7DBq1MBqL-5" value="Blog_Details" style="whiteSpace=wrap;html=1;align=center;" vertex="1" parent="1">
          <mxGeometry x="80" y="200" width="100" height="40" as="geometry" />
        </mxCell>
        <mxCell id="SwKZbsGES2z7DBq1MBqL-6" value="Order" style="whiteSpace=wrap;html=1;align=center;" vertex="1" parent="1">
          <mxGeometry x="400" y="240" width="100" height="40" as="geometry" />
        </mxCell>
        <mxCell id="SwKZbsGES2z7DBq1MBqL-7" value="Restaurant" style="whiteSpace=wrap;html=1;align=center;" vertex="1" parent="1">
          <mxGeometry x="520" y="600" width="100" height="40" as="geometry" />
        </mxCell>
        <mxCell id="SwKZbsGES2z7DBq1MBqL-8" value="Menu" style="whiteSpace=wrap;html=1;align=center;" vertex="1" parent="1">
          <mxGeometry x="680" y="380" width="100" height="40" as="geometry" />
        </mxCell>
        <mxCell id="SwKZbsGES2z7DBq1MBqL-9" value="Food_Item" style="whiteSpace=wrap;html=1;align=center;" vertex="1" parent="1">
          <mxGeometry x="620" y="680" width="100" height="40" as="geometry" />
        </mxCell>
        <mxCell id="SwKZbsGES2z7DBq1MBqL-10" value="Extras_Available" style="whiteSpace=wrap;html=1;align=center;" vertex="1" parent="1">
          <mxGeometry x="720" y="760" width="100" height="40" as="geometry" />
        </mxCell>
        <mxCell id="SwKZbsGES2z7DBq1MBqL-11" value="Open_Hours" style="whiteSpace=wrap;html=1;align=center;" vertex="1" parent="1">
          <mxGeometry x="410" y="680" width="100" height="40" as="geometry" />
        </mxCell>
        <mxCell id="SwKZbsGES2z7DBq1MBqL-12" value="New_Restaurant" style="whiteSpace=wrap;html=1;align=center;" vertex="1" parent="1">
          <mxGeometry x="720" y="600" width="100" height="40" as="geometry" />
        </mxCell>
        <mxCell id="SwKZbsGES2z7DBq1MBqL-13" value="Coupon" style="whiteSpace=wrap;html=1;align=center;" vertex="1" parent="1">
          <mxGeometry x="200" y="80" width="100" height="40" as="geometry" />
        </mxCell>
        <mxCell id="SwKZbsGES2z7DBq1MBqL-14" value="Payment" style="whiteSpace=wrap;html=1;align=center;" vertex="1" parent="1">
          <mxGeometry x="600" y="200" width="100" height="40" as="geometry" />
        </mxCell>
        <mxCell id="SwKZbsGES2z7DBq1MBqL-15" style="edgeStyle=orthogonalEdgeStyle;rounded=0;orthogonalLoop=1;jettySize=auto;html=1;exitX=0.5;exitY=1;exitDx=0;exitDy=0;" edge="1" parent="1" source="SwKZbsGES2z7DBq1MBqL-1" target="SwKZbsGES2z7DBq1MBqL-1">
          <mxGeometry relative="1" as="geometry" />
        </mxCell>
        <mxCell id="SwKZbsGES2z7DBq1MBqL-16" value="Has posted" style="shape=rhombus;perimeter=rhombusPerimeter;whiteSpace=wrap;html=1;align=center;" vertex="1" parent="1">
          <mxGeometry x="120" y="280" width="80" height="60" as="geometry" />
        </mxCell>
        <mxCell id="SwKZbsGES2z7DBq1MBqL-18" value="" style="edgeStyle=entityRelationEdgeStyle;fontSize=12;html=1;endArrow=ERzeroToMany;startArrow=ERzeroToOne;rounded=0;" edge="1" parent="1">
          <mxGeometry width="100" height="100" relative="1" as="geometry">
            <mxPoint x="70" y="350" as="sourcePoint" />
            <mxPoint x="170" y="250" as="targetPoint" />
            <Array as="points">
              <mxPoint x="120" y="300" />
              <mxPoint x="170" y="310" />
            </Array>
          </mxGeometry>
        </mxCell>
      </root>
    </mxGraphModel>
  </diagram>
</mxfile>
